<svg xmlns="http://www.w3.org/2000/svg" viewBox="0 0 48 48" fill="none">
  <circle cx="24" cy="16" r="10" fill="#FFE0D0" stroke="#F5A67E" stroke-width="2"/>
  <path d="M18 14a1.5 1.5 0 1 0 3 0 1.5 1.5 0 0 0-3 0M27 14a1.5 1.5 0 1 0 3 0 1.5 1.5 0 0 0-3 0" fill="#F5A67E"/>
  <path d="M21 19c0 0 1.5 2 3 2s3-2 3-2" stroke="#F5A67E" stroke-width="1.5" stroke-linecap="round"/>
  <path d="M16 26c-2 2-3 5-3 8a6 6 0 0 0 6 6h10a6 6 0 0 0 6-6c0-3-1-6-3-8" fill="#FFF0E8" stroke="#F5A67E" stroke-width="2"/>
</svg>
